<svg width="323" height="46" viewBox="0 0 323 46" fill="none" xmlns="http://www.w3.org/2000/svg">
<path fill-rule="evenodd" clip-rule="evenodd" d="M16.9987 0.949951C18.1032 0.949951 18.9985 1.84531 18.9985 2.9498V10.4492C18.9985 11.5537 18.1032 12.4491 16.9987 12.4491C15.8942 12.4491 14.9989 11.5537 14.9989 10.4492V2.9498C14.9989 1.84531 15.8942 0.949951 16.9987 0.949951ZM0 17.9487C0 16.8442 0.895362 15.9488 1.99985 15.9488H9.49927C10.6038 15.9488 11.4991 16.8442 11.4991 17.9487C11.4991 19.0531 10.6038 19.9485 9.49927 19.9485H1.99985C0.895362 19.9485 0 19.0531 0 17.9487ZM22.4983 17.9487C22.4983 16.8442 23.3936 15.9488 24.4981 15.9488H31.9975C33.102 15.9488 33.9974 16.8442 33.9974 17.9487C33.9974 19.0531 33.102 19.9485 31.9975 19.9485H24.4981C23.3936 19.9485 22.4983 19.0531 22.4983 17.9487ZM16.9987 23.4482C18.1032 23.4482 18.9985 24.3436 18.9985 25.4481V32.9475C18.9985 34.052 18.1032 34.9473 16.9987 34.9473C15.8942 34.9473 14.9989 34.052 14.9989 32.9475V25.4481C14.9989 24.3436 15.8942 23.4482 16.9987 23.4482Z" fill="#00AF4F"/>
<path fill-rule="evenodd" clip-rule="evenodd" d="M4.97879 5.92867C5.75978 5.14768 7.02601 5.14768 7.807 5.92867L13.1099 11.2316C13.8909 12.0126 13.8909 13.2788 13.1099 14.0598C12.3289 14.8408 11.0627 14.8408 10.2817 14.0598L4.97879 8.75688C4.1978 7.97589 4.1978 6.70966 4.97879 5.92867ZM29.0186 5.92867C29.7996 6.70966 29.7996 7.97589 29.0186 8.75688L23.7157 14.0598C22.9347 14.8408 21.6685 14.8408 20.8875 14.0598C20.1065 13.2788 20.1065 12.0126 20.8875 11.2316L26.1904 5.92867C26.9714 5.14768 28.2376 5.14768 29.0186 5.92867ZM13.1099 21.8374C13.8909 22.6183 13.8909 23.8846 13.1099 24.6656L7.807 29.9685C7.02601 30.7494 5.75978 30.7494 4.97879 29.9685C4.1978 29.1875 4.1978 27.9212 4.97879 27.1402L10.2817 21.8374C11.0627 21.0564 12.3289 21.0564 13.1099 21.8374ZM20.8875 21.8374C21.6685 21.0564 22.9347 21.0564 23.7157 21.8374L29.0186 27.1402C29.7996 27.9212 29.7996 29.1875 29.0186 29.9685C28.2376 30.7494 26.9714 30.7494 26.1904 29.9685L20.8875 24.6656C20.1065 23.8846 20.1065 22.6183 20.8875 21.8374Z" fill="#F97316"/>
<path d="M61.517 35.5123C59.3135 35.5123 57.3462 34.9772 55.6149 33.907C53.8837 32.8368 52.5144 31.373 51.5071 29.5159C50.4998 27.6587 49.9962 25.5497 49.9962 23.1889C49.9962 20.8281 50.4998 18.7348 51.5071 16.9091C52.5144 15.0519 53.8837 13.6039 55.6149 12.5652C57.3462 11.4949 59.3135 10.9598 61.517 10.9598C63.2797 10.9598 64.8221 11.2903 66.1442 11.9514C67.4662 12.6124 68.5365 13.541 69.3549 14.7371V0.949951H75.3986V34.9458H70.0159L69.3549 31.5934C68.5994 32.6321 67.5921 33.545 66.333 34.3319C65.1054 35.1189 63.5001 35.5123 61.517 35.5123ZM62.7918 30.2241C64.7434 30.2241 66.333 29.5788 67.5607 28.2882C68.8198 26.9662 69.4493 25.2821 69.4493 23.2361C69.4493 21.19 68.8198 19.5217 67.5607 18.2312C66.333 16.9091 64.7434 16.2481 62.7918 16.2481C60.8717 16.2481 59.2821 16.8934 58.023 18.1839C56.7639 19.4745 56.1343 21.1428 56.1343 23.1889C56.1343 25.2349 56.7639 26.919 58.023 28.241C59.2821 29.5631 60.8717 30.2241 62.7918 30.2241Z" fill="white"/>
<path d="M92.7904 35.5123C90.5241 35.5123 88.478 34.993 86.6523 33.9542C84.8581 32.9154 83.4259 31.4832 82.3556 29.6575C81.3169 27.8003 80.7975 25.6599 80.7975 23.2361C80.7975 20.8123 81.3326 18.6876 82.4028 16.8619C83.4731 15.0047 84.9053 13.5567 86.6995 12.518C88.5252 11.4792 90.5713 10.9598 92.8377 10.9598C95.0726 10.9598 97.0871 11.4792 98.8814 12.518C100.707 13.5567 102.139 15.0047 103.178 16.8619C104.248 18.6876 104.783 20.8123 104.783 23.2361C104.783 25.6599 104.248 27.8003 103.178 29.6575C102.139 31.4832 100.707 32.9154 98.8814 33.9542C97.0557 34.993 95.0254 35.5123 92.7904 35.5123ZM92.7904 30.2713C94.3643 30.2713 95.7336 29.689 96.8983 28.5243C98.0629 27.3282 98.6453 25.5654 98.6453 23.2361C98.6453 20.9067 98.0629 19.1597 96.8983 17.9951C95.7336 16.7989 94.3801 16.2008 92.8377 16.2008C91.2323 16.2008 89.8473 16.7989 88.6826 17.9951C87.5494 19.1597 86.9828 20.9067 86.9828 23.2361C86.9828 25.5654 87.5494 27.3282 88.6826 28.5243C89.8473 29.689 91.2166 30.2713 92.7904 30.2713Z" fill="white"/>
<path d="M110.993 45.3334L116.423 33.3876H115.007L105.894 11.5264H112.457L119.02 28.0049L125.867 11.5264H132.288L117.415 45.3334H110.993Z" fill="white"/>
<path d="M145.448 35.5123C143.181 35.5123 141.135 34.993 139.31 33.9542C137.515 32.9154 136.083 31.4832 135.013 29.6575C133.974 27.8003 133.455 25.6599 133.455 23.2361C133.455 20.8123 133.99 18.6876 135.06 16.8619C136.13 15.0047 137.563 13.5567 139.357 12.518C141.183 11.4792 143.229 10.9598 145.495 10.9598C147.73 10.9598 149.744 11.4792 151.539 12.518C153.364 13.5567 154.797 15.0047 155.835 16.8619C156.906 18.6876 157.441 20.8123 157.441 23.2361C157.441 25.6599 156.906 27.8003 155.835 29.6575C154.797 31.4832 153.364 32.9154 151.539 33.9542C149.713 34.993 147.683 35.5123 145.448 35.5123ZM145.448 30.2713C147.022 30.2713 148.391 29.689 149.556 28.5243C150.72 27.3282 151.303 25.5654 151.303 23.2361C151.303 20.9067 150.72 19.1597 149.556 17.9951C148.391 16.7989 147.037 16.2008 145.495 16.2008C143.89 16.2008 142.505 16.7989 141.34 17.9951C140.207 19.1597 139.64 20.9067 139.64 23.2361C139.64 25.5654 140.207 27.3282 141.34 28.5243C142.505 29.689 143.874 30.2713 145.448 30.2713Z" fill="white"/>
<path d="M171.627 35.5123C168.699 35.5123 166.433 34.5995 164.828 32.7738C163.254 30.9481 162.467 28.2725 162.467 24.747V11.5264H168.463V24.1804C168.463 26.195 168.872 27.7374 169.691 28.8076C170.509 29.8779 171.8 30.413 173.563 30.413C175.231 30.413 176.6 29.8149 177.67 28.6188C178.772 27.4226 179.323 25.7543 179.323 23.6138V11.5264H185.367V34.9458H180.031L179.559 30.9796C178.835 32.3646 177.781 33.4663 176.396 34.2847C175.042 35.1031 173.452 35.5123 171.627 35.5123Z" fill="white"/>
<path d="M191.571 34.9458V11.5264H196.953L197.52 15.9175C198.37 14.4066 199.519 13.2105 200.967 12.3291C202.446 11.4163 204.178 10.9598 206.161 10.9598V17.334H204.461C203.139 17.334 201.958 17.5386 200.92 17.9479C199.881 18.3571 199.062 19.0653 198.464 20.0726C197.898 21.0799 197.615 22.4806 197.615 24.2748V34.9458H191.571Z" fill="white"/>
<path d="M220.726 34.9458C218.271 34.9458 216.304 34.3477 214.824 33.1515C213.345 31.9554 212.605 29.8306 212.605 26.7773V16.5786H208.592V11.5264H212.605L213.313 5.24664H218.649V11.5264H224.976V16.5786H218.649V26.8245C218.649 27.9577 218.885 28.7447 219.357 29.1854C219.861 29.5946 220.71 29.7992 221.907 29.7992H224.834V34.9458H220.726Z" fill="white"/>
<path d="M230.165 34.9458V0.949951H236.208V15.1149C236.995 13.8243 238.05 12.817 239.372 12.093C240.725 11.3376 242.268 10.9598 243.999 10.9598C246.895 10.9598 249.13 11.8727 250.704 13.6984C252.309 15.5241 253.112 18.1997 253.112 21.7252V34.9458H247.115V22.2918C247.115 20.2772 246.706 18.7348 245.888 17.6646C245.101 16.5943 243.842 16.0592 242.11 16.0592C240.411 16.0592 238.994 16.6573 237.861 17.8534C236.759 19.0496 236.208 20.7179 236.208 22.8584V34.9458H230.165Z" fill="white"/>
<path d="M262.149 7.89076C261.047 7.89076 260.134 7.56025 259.41 6.89922C258.718 6.23819 258.372 5.40403 258.372 4.39675C258.372 3.38947 258.718 2.57105 259.41 1.94149C260.134 1.28047 261.047 0.949951 262.149 0.949951C263.251 0.949951 264.148 1.28047 264.84 1.94149C265.564 2.57105 265.926 3.38947 265.926 4.39675C265.926 5.40403 265.564 6.23819 264.84 6.89922C264.148 7.56025 263.251 7.89076 262.149 7.89076ZM259.127 34.9458V11.5264H265.171V34.9458H259.127Z" fill="white"/>
<path d="M271.479 34.9458V11.5264H276.814L277.287 15.4926C278.011 14.1076 279.049 13.0059 280.403 12.1875C281.788 11.369 283.409 10.9598 285.266 10.9598C288.162 10.9598 290.413 11.8727 292.018 13.6984C293.623 15.5241 294.426 18.1997 294.426 21.7252V34.9458H288.382V22.2918C288.382 20.2772 287.973 18.7348 287.155 17.6646C286.336 16.5943 285.062 16.0592 283.33 16.0592C281.631 16.0592 280.23 16.6573 279.128 17.8534C278.058 19.0496 277.523 20.7179 277.523 22.8584V34.9458H271.479Z" fill="white"/>
<path d="M310.121 27.9577C308.988 27.9577 307.933 27.8318 306.957 27.58L305.21 29.327C305.745 29.6103 306.469 29.8464 307.382 30.0352C308.295 30.2241 309.775 30.413 311.821 30.6018C314.937 30.8851 317.203 31.6249 318.62 32.821C320.036 34.0172 320.745 35.6697 320.745 37.7787C320.745 39.1637 320.367 40.4701 319.611 41.6977C318.856 42.9568 317.691 43.9641 316.117 44.7195C314.543 45.5065 312.529 45.9 310.074 45.9C306.737 45.9 304.046 45.2704 302 44.0113C299.954 42.7837 298.931 40.9265 298.931 38.4398C298.931 36.3308 299.954 34.5051 302 32.9627C301.37 32.6794 300.819 32.3803 300.347 32.0656C299.906 31.7508 299.513 31.4203 299.167 31.074V29.988L303.274 25.6441C301.449 24.0388 300.536 21.977 300.536 19.4588C300.536 17.8849 300.914 16.4527 301.669 15.1621C302.456 13.8715 303.558 12.8485 304.974 12.093C306.391 11.3376 308.106 10.9598 310.121 10.9598C311.443 10.9598 312.671 11.1487 313.804 11.5264H322.68V15.2093L318.667 15.4926C319.297 16.6887 319.611 18.0108 319.611 19.4588C319.611 21.0327 319.234 22.4649 318.478 23.7555C317.723 25.046 316.621 26.0691 315.173 26.8245C313.756 27.58 312.072 27.9577 310.121 27.9577ZM310.121 23.3305C311.348 23.3305 312.356 23 313.143 22.339C313.961 21.6779 314.37 20.7336 314.37 19.506C314.37 18.2784 313.961 17.334 313.143 16.673C312.356 16.012 311.348 15.6815 310.121 15.6815C308.83 15.6815 307.791 16.012 307.005 16.673C306.218 17.334 305.824 18.2784 305.824 19.506C305.824 20.7336 306.218 21.6779 307.005 22.339C307.791 23 308.83 23.3305 310.121 23.3305ZM304.455 37.826C304.455 38.9906 304.99 39.8563 306.06 40.4229C307.162 41.0209 308.5 41.32 310.074 41.32C311.585 41.32 312.812 41.0052 313.756 40.3756C314.701 39.7776 315.173 38.9591 315.173 37.9204C315.173 37.0705 314.858 36.3622 314.229 35.7956C313.631 35.229 312.419 34.8828 310.593 34.7569C309.302 34.6625 308.106 34.5208 307.005 34.3319C306.092 34.8356 305.431 35.3864 305.021 35.9845C304.644 36.5826 304.455 37.1964 304.455 37.826Z" fill="white"/>
</svg>
